<svg id="visual" viewBox="0 0 900 300" width="900" height="300" xmlns="http://www.w3.org/2000/svg" xmlns:xlink="http://www.w3.org/1999/xlink" version="1.1"><rect x="0" y="0" width="900" height="300" fill="#001220"></rect><path d="M0 107L18.8 102.7C37.7 98.3 75.3 89.7 112.8 86.2C150.3 82.7 187.7 84.3 225.2 84.8C262.7 85.3 300.3 84.7 337.8 84C375.3 83.3 412.7 82.7 450.2 81.3C487.7 80 525.3 78 562.8 78.2C600.3 78.3 637.7 80.7 675.2 83.7C712.7 86.7 750.3 90.3 787.8 98C825.3 105.7 862.7 117.3 881.3 123.2L900 129L900 0L881.3 0C862.7 0 825.3 0 787.8 0C750.3 0 712.7 0 675.2 0C637.7 0 600.3 0 562.8 0C525.3 0 487.7 0 450.2 0C412.7 0 375.3 0 337.8 0C300.3 0 262.7 0 225.2 0C187.7 0 150.3 0 112.8 0C75.3 0 37.7 0 18.8 0L0 0Z" fill="#001220"></path><path d="M0 83L18.8 81.7C37.7 80.3 75.3 77.7 112.8 79.3C150.3 81 187.7 87 225.2 91.2C262.7 95.3 300.3 97.7 337.8 98.8C375.3 100 412.7 100 450.2 101.5C487.7 103 525.3 106 562.8 101.7C600.3 97.3 637.7 85.7 675.2 81.7C712.7 77.7 750.3 81.3 787.8 79C825.3 76.7 862.7 68.3 881.3 64.2L900 60L900 0L881.3 0C862.7 0 825.3 0 787.8 0C750.3 0 712.7 0 675.2 0C637.7 0 600.3 0 562.8 0C525.3 0 487.7 0 450.2 0C412.7 0 375.3 0 337.8 0C300.3 0 262.7 0 225.2 0C187.7 0 150.3 0 112.8 0C75.3 0 37.7 0 18.8 0L0 0Z" fill="#00111d"></path><path d="M0 44L18.8 46.3C37.7 48.7 75.3 53.3 112.8 56.8C150.3 60.3 187.7 62.7 225.2 60.8C262.7 59 300.3 53 337.8 56.2C375.3 59.3 412.7 71.7 450.2 72.5C487.7 73.3 525.3 62.7 562.8 59.2C600.3 55.7 637.7 59.3 675.2 63.5C712.7 67.7 750.3 72.3 787.8 72.7C825.3 73 862.7 69 881.3 67L900 65L900 0L881.3 0C862.7 0 825.3 0 787.8 0C750.3 0 712.7 0 675.2 0C637.7 0 600.3 0 562.8 0C525.3 0 487.7 0 450.2 0C412.7 0 375.3 0 337.8 0C300.3 0 262.7 0 225.2 0C187.7 0 150.3 0 112.8 0C75.3 0 37.7 0 18.8 0L0 0Z" fill="#000f1b"></path><path d="M0 45L18.8 44.5C37.7 44 75.3 43 112.8 45C150.3 47 187.7 52 225.2 50.3C262.7 48.7 300.3 40.3 337.8 36.2C375.3 32 412.7 32 450.2 33.5C487.7 35 525.3 38 562.8 41.5C600.3 45 637.7 49 675.2 46.8C712.7 44.7 750.3 36.3 787.8 35.3C825.3 34.3 862.7 40.7 881.3 43.8L900 47L900 0L881.3 0C862.7 0 825.3 0 787.8 0C750.3 0 712.7 0 675.2 0C637.7 0 600.3 0 562.8 0C525.3 0 487.7 0 450.2 0C412.7 0 375.3 0 337.8 0C300.3 0 262.7 0 225.2 0C187.7 0 150.3 0 112.8 0C75.3 0 37.7 0 18.8 0L0 0Z" fill="#000e19"></path><path d="M0 41L18.8 35.7C37.7 30.3 75.3 19.7 112.8 17.7C150.3 15.7 187.7 22.3 225.2 22.8C262.7 23.3 300.3 17.7 337.8 18.3C375.3 19 412.7 26 450.2 27.7C487.7 29.3 525.3 25.7 562.8 25.2C600.3 24.7 637.7 27.3 675.2 29C712.7 30.7 750.3 31.3 787.8 28C825.3 24.7 862.7 17.3 881.3 13.7L900 10L900 0L881.3 0C862.7 0 825.3 0 787.8 0C750.3 0 712.7 0 675.2 0C637.7 0 600.3 0 562.8 0C525.3 0 487.7 0 450.2 0C412.7 0 375.3 0 337.8 0C300.3 0 262.7 0 225.2 0C187.7 0 150.3 0 112.8 0C75.3 0 37.7 0 18.8 0L0 0Z" fill="#000c16"></path></svg>